<?xml version="1.0" standalone="no"?><!DOCTYPE svg PUBLIC "-//W3C//DTD SVG 1.1//EN" "http://www.w3.org/Graphics/SVG/1.1/DTD/svg11.dtd"><svg t="1674694523305" class="icon" viewBox="0 0 1024 1024" version="1.1" xmlns="http://www.w3.org/2000/svg" p-id="20435" xmlns:xlink="http://www.w3.org/1999/xlink" width="200" height="200"><path d="M462.264463 357.874715c0 27.45996 22.267401 49.720208 49.735537 49.720208 27.468136 0 49.735537-22.260248 49.735537-49.720208L561.735537 119.219353c0-27.45996-22.267401-49.720208-49.735537-49.720208-27.468136 0-49.735537 22.260248-49.735537 49.720208L462.264463 357.874715zM727.678723 114.842315c-24.059912-13.247617-54.306747-4.489453-67.559473 19.562283-13.252727 24.052758-4.491497 54.290395 19.568415 67.538012 1.728128 0.951441 3.44808 1.918212 5.159856 2.898267 23.829972 13.655377 54.222946 5.413301 67.882411-18.409517 13.660487-23.822818 5.415345-54.205573-18.415649-67.861972C732.114012 117.309317 729.901477 116.066619 727.678723 114.842315zM744.130172 124.362858c-23.474331-14.258331-54.066587-6.792942-68.330028 16.675257-14.262419 23.467178-6.794986 54.050236 16.680367 68.308567 2.479265 1.506363 4.940136 3.043385 7.381589 4.611066 23.111537 14.839824 53.880591 8.140902 68.725525-14.962459 14.844934-23.104383 8.143968-53.86424-14.967569-68.704064C750.481629 128.274906 747.318675 126.298443 744.130172 124.362858zM763.088479 136.540487c-22.728303-15.420295-53.656782-9.502148-69.082188 13.219002-15.425405 22.72115-9.504192 53.640431 13.22309 69.060727 2.401597 1.628998 4.782754 3.288655 7.143473 4.977948 22.335872 15.982371 53.403337 10.836822 69.390818-11.492918 15.986459-22.329741 10.839888-53.386986-11.497006-69.369357C769.233501 140.766275 766.173764 138.633453 763.088479 136.540487zM781.402954 149.649118c-21.925046-16.540359-53.113102-12.180695-69.658571 9.73822-16.545469 21.918914-12.184782 53.09675 9.740263 69.63711 2.316774 1.747545 4.612088 3.524727 6.884918 5.329501 21.507066 17.080974 52.79323 13.499018 69.879313-8.001916 17.086084-21.499912 13.503106-52.776878-8.00396-69.857852C787.326212 154.175361 784.37889 151.894355 781.402954 149.649118zM799.010236 163.636631c-21.070691-17.616479-52.436567-14.821429-70.058156 6.242108-17.621589 21.063537-14.826539 52.420216 6.244152 70.036695 2.227864 1.863026 4.432224 3.752623 6.613078 5.670834 20.62614 18.134611 52.051289 16.120335 70.192032-4.498651 18.140743-20.618986 16.125445-52.03596-4.499673-70.170571C804.700487 168.455154 801.870691 166.028008 799.010236 163.636631zM815.889884 178.481565c-20.164216-18.646611-51.630244-17.422307-70.282986 2.735776s-17.427417 51.614914 2.736798 70.261525c2.1318 1.971353 4.239074 3.968255 6.320798 5.991729 19.694116 19.141238 51.181605 18.698731 70.328974-0.989253s18.704862-51.166275-0.989253-70.307513C821.330778 183.576016 818.625661 181.011928 815.889884 178.481565zM832.001022 194.145086c-19.207665-19.629733-50.696176-19.976176-70.33204-0.774643-19.635864 19.201533-19.982307 50.680846-0.774643 70.310579 2.030627 2.075593 4.034683 4.175713 6.01319 6.300359 18.71406 20.100854 50.184176 21.229094 70.291162 2.521166 20.106986-18.707928 21.236248-50.168846 2.522188-70.269701C837.181317 199.505246 834.60701 196.808303 832.001022 194.145086zM847.298683 210.579162c-18.204104-20.562778-49.636407-22.479968-70.205317-4.280974-20.56891 18.198994-22.487122 49.621078-4.283018 70.183856 1.924343 2.172679 3.820072 4.369884 5.68923 6.589573 17.686994 21.008351 49.062068 23.706315 70.077573 6.024431 21.015505-17.681884 23.713469-49.046739 6.025453-70.056112C852.20305 216.189701 849.76875 213.369102 847.298683 210.579162zM861.750164 227.749046c-17.155577-21.445749-48.452982-24.927553-69.904862-7.778108s-24.935729 48.437653-7.780152 69.883401c1.811928 2.265677 3.596263 4.553836 5.351984 6.863457 16.615984 21.865772 47.817325 26.125285 69.68923 9.513389 21.871904-16.610874 26.132439-47.801996 9.516455-69.667768C866.369405 233.596679 864.07818 230.658555 861.750164 227.749046zM874.87208 244.987401c-16.100918-22.246962-47.193932-27.234108-69.448048-11.138299-22.254116 16.095808-27.242283 47.179625-11.142387 69.426587 1.700535 2.350499 3.372455 4.721437 5.014739 7.113836 15.540886 22.641437 46.500024 28.402204 69.148615 12.865405 22.648591-15.536798 28.410379-46.485717 12.869493-69.127154C879.205174 251.054754 877.057022 248.007281 874.87208 244.987401zM887.652663 263.618683c-14.959393-23.02978-45.76115-29.576431-68.799106-14.621126-23.036934 14.955305-29.585629 45.747864-14.626236 68.777645 1.580966 2.434299 3.131273 4.888016 4.650922 7.360128 14.378922 23.396663 45.007968 30.710802 68.411784 16.335968 23.403816-14.374834 30.72-44.993661 16.341078-68.390323C891.678148 269.901669 889.685333 266.747912 887.652663 263.618683zM899.472607 282.861094c-13.778012-23.755369-44.210842-31.846196-67.973365-18.072271-23.762523 13.773924-31.855393 44.197557-18.077381 67.952926 1.454244 2.50788 2.877828 5.034156 4.269733 7.577804 13.179146 24.092615 43.399409 32.942754 67.499178 19.766675 24.099768-13.175058 32.951952-43.386124 19.772806-67.478739C903.174132 289.335186 901.342786 286.086387 899.472607 282.861094zM910.281836 302.629812c-12.562906-24.419641-42.54812-34.034204-66.974914-21.475385-24.426794 12.558818-34.044423 42.535856-21.482539 66.954475 1.325477 2.576351 2.619273 5.170076 3.879345 7.77913 11.945645 24.726228 41.681501 35.090906 66.415904 23.148327 24.734403-11.942579 35.101126-41.668216 23.155481-66.395465C913.652248 309.282747 911.987481 305.945038 910.281836 302.629812zM920.077285 322.913597c-11.313054-25.022595-40.774004-36.139433-65.804774-24.830467-25.029749 11.308966-36.150675 40.761741-24.837621 65.784335 1.193645 2.639713 2.354587 5.295776 3.480782 7.965126 10.679441 25.298523 39.853222 37.153214 65.15992 26.475816 25.306699-10.676375 37.164455-39.840958 26.483992-65.139481C923.108407 329.732088 921.614307 326.312623 920.077285 322.913597zM928.817054 343.623537c-10.034587-25.562188-38.896671-38.151665-64.467034-28.120144-25.569341 10.031521-38.162906 38.885429-28.129341 64.446595 1.058747 2.696942 2.083768 5.408192 3.075066 8.132727 9.386667 25.806435 37.923768 39.118435 63.737357 29.734834 25.814611-9.384623 39.130699-37.911505 29.744032-63.71794C931.501733 350.590212 930.181365 347.098188 928.817054 343.623537zM936.369309 364.360048c-8.753054-26.0282-36.954954-40.034108-62.991329-31.28412-26.036375 8.749988-40.046371 36.943713-31.293317 62.971912 0.923848 2.745996 1.81295 5.505277 2.667305 8.2758 8.093892 26.240766 35.93402 40.952846 62.18194 32.86202 26.248942-8.091848 40.966132-35.922778 32.871218-62.163545C938.704479 371.452423 937.558866 367.899082 936.369309 364.360048zM943.031441 385.979529c-7.416335-26.440048-34.869142-41.862387-61.316343-34.448096-26.448224 7.414291-41.875673 34.8579-34.459337 61.297948 0.781796 2.786874 1.528846 5.58499 2.24115 8.393325 6.747976 26.617868 33.803242 42.726962 60.429285 35.98103 26.626044-6.745932 42.740248-33.793022 35.992271-60.41089C945.00075 393.1741 944.03909 389.569661 943.031441 385.979529zM948.571465 407.849389c-6.065309-26.781381-32.699529-43.57723-59.490108-37.512942-26.789557 6.063265-43.590515 32.690331-37.525206 59.471713 0.638723 2.821621 1.242699 5.653461 1.811928 8.493477 5.390818 26.925477 31.594794 44.384575 58.528447 38.9958 26.933653-5.388774 44.39786-31.584575 39.007042-58.510052C950.171848 415.128782 949.39414 411.483465 948.571465 407.849389zM952.975074 429.851082c-4.709174-27.053222-30.463489-45.168415-57.524886-40.460263-27.061397 4.70713-45.181701 30.454291-40.473549 57.507513 0.496671 2.854323 0.958595 5.717844 1.383729 8.588519 4.028551 27.162571 29.320942 45.917509 56.492711 41.888958 27.170747-4.027529 45.930794-29.312766 41.902244-56.475337C954.207553 437.207122 953.613796 433.523992 952.975074 429.851082zM956.263729 452.031617c-3.345884-27.255569-28.158978-46.637988-55.422723-43.294148-27.263745 3.344862-46.653317 28.150802-43.307433 55.405349 0.353597 2.876806 0.670403 5.761788 0.952463 8.652902 2.66424 27.330172 26.986794 47.325764 54.325142 44.661525 27.338347-2.66424 47.340072-26.978619 44.675832-54.30879C957.125238 459.435689 956.717477 455.729054 956.263729 452.031617zM958.436407 474.312303c-1.983617-27.387401-25.800303-47.982882-53.19588-46.000287-27.396599 1.982595-47.99719 25.792128-46.014595 53.179529 0.209501 2.891114 0.383234 5.789381 0.521198 8.692758 1.305038 27.428279 24.604615 48.606275 52.042092 47.302259 27.437477-1.304016 48.621605-24.597461 47.316567-52.025741C958.927968 481.737836 958.70416 478.020982 958.436407 474.312303zM959.616766 507.034315c0-3.478739-0.039856-6.954411-0.119569-10.423952-0.628503-27.452806-23.40075-49.196966-50.860711-48.568463-27.460982 0.628503-49.212295 23.393597-48.58277 50.845381 0.062339 2.71125 0.092998 5.426587 0.092998 8.147034 0 0.291257 0 0.291257 0 0.582515-0.044966 27.45996 22.185645 49.755976 49.65378 49.800942 27.468136 0.044966 49.771305-22.179513 49.816271-49.638451C959.616766 507.407329 959.616766 507.407329 959.616766 507.034315zM959.458363 519.059673c0.725589-27.449741-20.94499-50.290459-48.403928-51.01707-27.457916-0.725589-50.30681 20.938858-51.032399 48.388599-0.076647 2.909509-0.190084 5.812886-0.338267 8.711154-1.403146 27.424192 19.698204 50.79224 47.130571 52.194363 27.432367 1.402124 50.807569-19.692072 52.210715-47.116263C959.215138 526.506667 959.359234 522.785725 959.458363 519.059673zM958.307641 541.481389c2.087856-27.380248-18.42178-51.268471-45.810204-53.356327-27.388423-2.087856-51.2838 18.415649-53.372679 45.795896-0.220743 2.897246-0.478275 5.788359-0.769533 8.673341-2.768479 27.319952 17.141269 51.709956 44.469397 54.477413 27.328128 2.767457 51.726307-17.13616 54.494786-44.45509C957.694467 548.912032 958.024559 545.200287 958.307641 541.481389zM956.044008 563.80091c3.454212-27.241261-15.837253-52.123848-43.086691-55.577038-27.250459-3.45319-52.1402 15.832144-55.594411 43.073405-0.364838 2.879872-0.765445 5.751569-1.20182 8.616112-4.133812 27.147242 14.528128 52.504016 41.682523 56.636806 27.155417 4.13279 52.520367-14.523018 56.65418-41.670259C955.058842 571.196806 955.573908 567.503457 956.044008 563.80091zM952.657246 586.020279c4.819545-27.033804-13.194475-52.854547-40.236455-57.67307-27.04198-4.818523-52.870898 13.190387-57.690443 40.224192-0.508934 2.856367-1.053637 5.703537-1.634108 8.541509-5.497102 26.904016 11.862866 53.169309 38.775058 58.664367 26.912192 5.49608 53.185661-11.858778 58.682762-38.762794C951.30111 593.362012 952.002172 589.696255 952.657246 586.020279zM948.160639 608.016862c6.176703-26.756854-10.513884-53.452391-37.277892-59.62705-26.764008-6.174659-53.468743 10.510818-59.644423 37.266651-0.652008 2.824687-1.338762 5.639154-2.061285 8.443401-6.848128 26.592319 9.16388 53.699705 35.765397 60.545788 26.600495 6.846084 53.716056-9.161836 60.564184-35.754156C946.435577 615.280926 947.320591 611.655026 948.160639 608.016862zM942.553166 629.783505c7.521597-26.410411-7.797525-53.915337-34.216112-61.433868-26.418587-7.518531-53.931689 7.795481-61.453285 34.205892-0.79406 2.787896-1.622866 5.564551-2.486419 8.329964-8.184846 26.212152 6.436279 54.09418 32.656607 62.27596 26.220327 8.18178 54.110531-6.434236 62.295377-32.646387C940.462244 636.952527 941.530188 633.374659 942.553166 629.783505zM936.235433 650.105102c8.777581-26.020024-5.206866-54.226012-31.234044-63.001549-26.0282-8.774515-54.243385 5.204822-63.020966 31.224846-0.926914 2.747018-1.887553 5.481772-2.882938 8.20222-9.430611 25.790084 3.838467 54.340471 29.636727 63.768016 25.798259 9.427545 54.356822-3.837445 63.787433-29.627529C933.8042 657.165796 935.041788 653.643114 936.235433 650.105102zM928.614707 670.961182c10.066267-25.548902-2.491529-54.41814-28.048607-64.481341-25.557078-10.063202-54.435513 2.490507-64.50178 28.039409-1.062834 2.696942-2.159393 5.379577-3.288655 8.048926-10.706012 25.288303 1.121086 54.464128 26.416543 65.167074 25.295457 10.702946 54.480479-1.120064 65.187513-26.408367C925.833964 677.890044 927.246307 674.43481 928.614707 670.961182zM919.790116 691.789669c11.351888-25.005222 0.277972-54.475369-24.735425-65.82317-25.012375-11.3478-54.491721-0.277972-65.843609 24.72725-1.197733 2.639713-2.42919 5.263074-3.693349 7.871106-11.976303 24.71192-1.646371 54.450842 23.073725 66.423058 24.719074 11.973238 54.467194 1.645349 66.443497-23.066571C916.66293 698.565238 918.247984 695.187673 919.790116 691.789669zM909.925174 712.132727c12.604806-24.397158 3.039297-54.390547-21.365014-66.992287-24.405333-12.601741-54.40792-3.039297-67.012727 21.358882-1.331609 2.577373-2.69592 5.138395-4.091912 7.682044-13.21287 24.073198-4.403609 54.297549 19.677764 67.506331 24.081373 13.208782 54.3139 4.401565 67.527792-19.671633C906.456655 718.74376 908.211353 715.448974 909.925174 712.132727zM899.070978 731.900423c13.820934-23.730842 5.782228-54.16776-17.955768-67.984607-23.737996-13.816846-54.185134-5.780184-68.006068 17.950659-1.459353 2.506858-2.950387 4.994299-4.473102 7.463345-14.410603 23.377246-7.135297 54.006291 16.249102 68.412806 23.384399 14.405493 54.023665 7.133253 68.433246-16.245014C895.276455 738.322395 897.193645 735.123673 899.070978 731.900423zM887.222419 751.111154c15.000271-23.00321 8.505741-53.808032-14.504623-68.803194-23.010363-14.995162-53.824383-8.503697-68.824655 14.500535-1.585054 2.430212-3.199745 4.841006-4.845094 7.231361-15.569501 22.62202-9.846547 53.579114 12.782627 69.143505 22.629174 15.564391 53.595465 9.843481 69.164966-12.778539C883.110068 757.332822 885.185661 754.235273 887.222419 751.111154zM874.451034 769.662723c16.136687-22.221413 11.197573-53.313405-11.030994-69.444982-22.228567-16.131577-53.329756-11.194507-69.465421 11.027928-1.705645 2.349477-3.440926 4.677493-5.204822 6.983026-16.685477 21.812631-12.52305 53.01806 9.296735 69.697405 21.819784 16.680367 53.033389 12.518962 69.718866-9.293669C870.030052 775.670802 872.258938 772.680559 874.451034 769.662723zM860.777261 787.532647c17.229158-21.386475 13.854659-52.685924-7.537948-69.909972-21.392607-17.224048-52.702275-13.850571-69.931433 7.535904-1.820104 2.259545-3.669844 4.497629-5.546156 6.711186-17.755465 20.951122-15.160719 52.325174 5.796535 70.075529 20.957253 17.750355 52.340503 15.155609 70.09699-5.795513C856.066044 793.307721 858.440048 790.435002 860.777261 787.532647zM846.251178 804.668806c18.275641-20.499417 16.468822-51.927633-4.036727-70.198164-20.505549-18.270531-51.943984-16.463713-70.220647 4.034683-1.933541 2.168591-3.893653 4.312655-5.879313 6.432192-18.780487 20.038515-17.755465 51.502499 2.289182 70.276854 20.044647 18.774355 51.51885 17.750355 70.299337-2.289182C841.253812 810.204743 843.769868 807.451593 846.251178 804.668806zM830.880958 821.06507c19.277158-19.561261 19.042108-51.041597-0.525285-70.312623-19.567393-19.271026-51.056926-19.035976-70.334084 0.525285-2.03778 2.067417-4.100088 4.109285-6.188966 6.125605-19.757477 19.076854-20.304224 50.553102-1.221238 70.303425 19.081964 19.751345 50.568431 20.298092 70.325908 1.221238C825.616862 826.340407 828.265772 823.71909 830.880958 821.06507zM814.72281 836.662164c20.229621-18.575074 21.565317-50.027816 2.984112-70.251305-18.581206-20.223489-50.043146-21.559186-70.272766-2.98309-2.139976 1.965222-4.304479 3.903872-6.493509 5.81493-20.685413 18.067162-22.802906 49.47596-4.730635 70.155242 18.072271 20.679281 49.491289 22.796774 70.176703 4.729613C809.197094 841.673836 811.975792 839.185373 814.72281 836.662164zM797.820679 851.423297c21.130986-17.54392 24.034363-48.890379 6.485333-70.015234-17.54903-21.124854-48.905709-24.02721-70.036695-6.483289-2.23604 1.855872-4.494563 3.684152-6.775569 5.484838-21.56123 17.012503-25.244359 48.277206-8.226747 69.832303 17.017613 21.555098 48.291513 25.237206 69.853764 8.224703C792.049693 856.153932 794.950004 853.806499 797.820679 851.423297zM780.51283 865.089916c21.966946-16.486196 26.405301-47.65279 9.913996-69.612583-16.491305-21.959792-47.667098-26.397126-69.634044-9.91093-2.322906 1.743457-4.667273 3.458299-7.033102 5.143505-22.370619 15.933317-27.584639 46.980343-11.646212 69.343808 15.938427 22.363465 46.994651 27.576463 69.365269 11.643146C774.517014 869.532359 777.528719 867.330044 780.51283 865.089916zM762.447713 877.963497c22.754874-15.380439 28.728208-46.290523 13.342659-69.038244-15.385549-22.747721-46.30483-28.71901-69.058683-13.338571-2.403641 1.62491-4.827721 3.220184-7.271218 4.783776-23.131976 14.808144-29.874842 45.558802-15.062611 68.683625 14.813253 23.124822 45.57311 29.865645 68.705086 15.057501C756.242395 882.101397 759.358339 880.051353 762.447713 877.963497zM743.405605 890.146236c23.501924-14.213365 31.027609-44.782116 16.809134-68.276886-14.218475-23.49477-44.796423-31.018411-68.298347-16.804024-2.482331 1.501253-4.983058 2.970826-7.501158 4.409741-23.850411 13.621653-32.138475 43.992144-18.512735 67.835401 13.625741 23.843257 44.006451 32.128255 67.85584 18.506603C736.99794 893.967329 740.214036 892.076711 743.405605 890.146236zM723.831058 901.321325c24.188679-13.011545 33.246275-43.162315 20.230643-67.342818-13.015633-24.181525-43.175601-33.236056-67.364279-20.224511-2.55489 1.374531-5.127154 2.717381-7.71679 4.026507-24.507529 12.401437-34.318307 42.315114-21.913804 66.814467 12.404503 24.500375 42.327377 34.308088 66.834906 21.907673C717.233309 904.817437 720.543425 903.089309 723.831058 901.321325zM703.743489 911.482635c24.814116-11.774978 35.381142-41.431122 23.602076-66.237062-11.779066-24.806962-41.443385-35.370922-66.257501-23.594922-2.61723 1.242699-5.25081 2.451673-7.899721 3.627944-25.102307 11.148519-36.411273 40.529756-25.258667 65.623888 11.151585 25.094132 40.54202 36.400032 65.644327 25.251513C696.98325 914.638435 700.373078 913.081996 703.743489 911.482635zM683.178667 920.61279c25.377214-10.507752 37.429142-39.591601 26.918323-64.961661-10.510818-25.37006-39.603864-37.4179-64.981078-26.910148-2.678547 1.108822-5.372423 2.184942-8.078563 3.226315-25.633725 9.864942-38.414307 38.637094-28.546299 64.262643 9.868008 25.626571 38.649357 38.403066 64.283082 28.537102C676.260024 923.426236 679.728543 922.040463 683.178667 920.61279zM662.191776 928.687265c25.875928-9.211912 39.383122-37.649884 30.168144-63.518659-9.214978-25.867752-37.662148-39.370858-63.538076-30.158946-2.732711 0.972902-5.477685 1.911058-8.235944 2.815489-26.100758 8.556838-40.320255 36.645301-31.761373 62.737884 8.558882 26.092583 36.656543 40.307992 62.756279 31.751154C655.13517 931.149158 658.671138 929.940184 662.191776 928.687265zM641.109844 935.604886c26.304128-7.90994 41.213445-35.638675 33.301461-61.934627s-35.648894-41.20016-61.953022-33.291242c-2.777677 0.834938-5.566595 1.63513-8.366754 2.401597-26.495234 7.243625-42.099481 34.588104-34.853812 61.07414 7.245669 26.487058 34.598323 42.086196 61.093557 34.842571C633.938778 937.71216 637.531976 936.681006 641.109844 935.604886zM619.339114 941.552671c26.67101-6.565046 42.969166-33.501764 36.402076-60.164599-6.56709-26.662834-33.511984-42.95588-60.184016-36.390834-2.810379 0.691864-5.630978 1.348982-8.461796 1.970331-26.828391 5.892599-43.797972 32.411337-37.904351 59.230531 5.894643 26.820216 32.420535 43.784687 59.248926 37.892088C612.086291 943.289996 615.719345 942.443816 619.339114 941.552671zM597.395673 946.370172c26.968399-5.211976 44.605317-31.292295 39.392319-58.252519-5.212998-26.960224-31.301493-44.59101-58.270914-39.380056-2.848192 0.550834-5.704559 1.064878-8.570124 1.544176-27.091034 4.532375-45.377916 30.162012-40.843497 57.24487 4.533397 27.082858 30.17121 45.363609 57.262244 40.831234C590.052918 947.741637 593.729916 947.078387 597.395673 946.370172zM575.253972 950.073741c27.196295-3.849709 46.1219-29.011289 42.27117-56.199409-3.850731-27.18812-29.019465-46.107593-56.216782-42.258906-2.871697 0.406739-5.751569 0.777709-8.638595 1.11291-27.284184 3.169086-46.833182 27.849325-43.664096 55.125333 3.170108 27.276008 27.857501 46.818874 55.141685 43.65081C567.859098 951.073214 571.561645 950.596982 575.253972 950.073741zM552.998834 952.658267c27.354699-2.486419 47.513804-26.672032 45.026363-54.018555-2.487441-27.346523-26.680208-47.499497-54.034906-45.013078-2.893158 0.262643-5.793469 0.490539-8.699912 0.681645-27.408862 1.805796-48.162747 25.482475-46.35695 52.88214 1.806818 27.399665 25.489629 48.148439 52.898491 46.341621C545.56206 953.287792 549.285046 952.996535 552.998834 952.658267zM530.677269 954.130906c27.444631-1.12824 48.777964-24.284743 47.649725-51.721198-1.12824-27.436455-24.291896-48.763657-51.736527-47.635417-2.902355 0.119569-5.80982 0.203369-8.723417 0.251401-27.464048 0.452727-49.361501 23.07679-48.908774 50.532663 0.452727 27.455872 23.083944 49.346172 50.547992 48.894467C523.235385 954.390483 526.959393 954.283178 530.677269 954.130906zM508.294387 954.49881c27.467114 0.222786 49.914379-21.855553 50.138188-49.314491 0.222786-27.458938-21.862707-49.89905-49.32982-50.121836-2.912575-0.023505-5.82004-0.082778-8.723417-0.17782-27.452806-0.897277-50.436599 20.623074-51.334898 48.067705-0.898299 27.444631 20.629206 50.421269 48.083034 51.318547C500.844327 954.392527 504.567313 954.468152 508.294387 954.49881zM485.863473 953.76198c27.422148 1.580966 50.935313-19.360958 52.516279-46.77493 1.581988-27.413972-19.366068-50.918962-46.789238-52.499928-2.903377-0.167601-5.801645-0.37097-8.69378-0.609086-27.375138-2.260567-51.399281 18.091689-53.66087 45.458651-2.260567 27.36594 18.09782 51.383952 45.472958 53.643497C478.420567 953.28677 482.138443 953.547369 485.863473 953.76198zM463.474459 951.910196c27.309733 2.947321 51.837701-16.795848 54.785022-44.097405 2.947321-27.300535-16.800958-51.821349-44.110691-54.768671-2.888048-0.311697-5.769964-0.659162-8.643705-1.042395-27.226954-3.627944-52.240351 15.496942-55.869317 42.715721-3.628966 27.218778 15.502052 52.225022 42.729006 55.851944C456.059146 951.062994 459.762715 951.509589 463.474459 951.910196zM441.210124 948.941413c27.126802 4.312655 52.615409-14.175553 56.929086-41.29418 4.313677-27.118627-14.179641-52.599058-41.307465-56.911713-2.866587-0.455792-5.724998-0.947353-8.574212-1.473661-27.010299-4.991234-52.953677 12.85212-57.946954 39.853222-4.993277 27.002124 12.855186 52.938347 39.865485 57.929581C433.843864 947.723242 437.521884 948.355832 441.210124 948.941413zM419.112367 944.855633c26.875401 5.672878 53.262307-11.507226 58.93723-38.374451s-11.511313-53.245956-38.386715-58.919856c-2.83695-0.598866-5.664703-1.233501-8.483257-1.90186-26.724152-6.347369-53.53517 10.164375-59.884583 36.880351s10.168463 53.518818 36.891593 59.866188C411.816623 943.267513 415.457852 944.084056 419.112367 944.855633zM397.232287 939.656942c26.554507 7.023904 53.776351-8.802108 60.802299-35.348439 7.025948-26.546331-8.805174-53.76-35.359681-60.782882-2.803226-0.74194-5.596232-1.517605-8.377996-2.329038-26.368511-7.69022-53.980743 7.44495-61.674028 33.805285-7.692263 26.360335 7.446994 53.964391 33.816527 61.654611C390.022387 937.700918 393.620695 938.701413 397.232287 939.656942zM376.825868 933.733685c26.188647 8.283976 54.13608-6.223713 62.4221-32.403162 8.287042-26.180471-6.224735-54.118707-32.413381-62.402683-2.763369-0.874794-5.515497-1.783313-8.254339-2.726579-25.97097-8.941094-54.275066 4.857357-63.219226 30.821174-8.94416 25.962794 4.859401 54.258715 30.830371 63.199808C369.720208 931.436327 373.265373 932.607489 376.825868 933.733685zM355.830802 926.510499c25.742052 9.580838 54.379305-3.513485 63.96321-29.247361 9.583904-25.733876-3.514507-54.361932-29.255537-63.943792-2.717381-1.011737-5.421477-2.057198-8.112287-3.136383-25.492695-10.226715-54.44982 2.143042-64.679601 27.627561s2.144064 54.433469 27.635737 64.659162C348.847776 923.861589 352.330603 925.208527 355.830802 926.510499zM334.839824 918.084471c25.221876 10.876679 54.487633-0.746028 65.367377-25.959729 10.879745-25.213701-0.746028-54.470259-25.967904-65.346938-2.662196-1.147657-5.309062-2.329038-7.940599-3.543122-24.939816-11.507226-54.488655-0.623393-65.998946 24.309269-11.510291 24.932663-0.623393 54.472303 24.316423 65.978507C328.00396 915.08503 331.412184 916.606723 334.839824 918.084471zM314.314858 908.608894c24.637317 12.140838 54.45493 2.017341 66.599856-22.6118 12.144926-24.629142 2.018363-54.438579-22.618954-66.579417-2.600878-1.281533-5.186427-2.59679-7.754603-3.942707-24.324599-12.755034-54.387481-3.382675-67.146603 20.93477-12.759122 24.317445-3.383697 54.370108 20.940902 67.126164C307.640463 905.267098 310.96693 906.959457 314.314858 908.608894zM294.292695 898.103186c23.990419 13.372295 54.283242 4.771513 67.659625-19.211752 13.376383-23.983265 4.772535-54.265868-19.217884-67.639186-2.534451-1.413365-5.052551-2.857389-7.551234-4.334116-23.648064-13.969118-54.146299-6.128671-68.119505 17.51224-13.973206 23.64091-6.130715 54.129948 17.517349 68.099066C287.795098 894.428232 291.032655 896.286148 294.292695 898.103186zM274.867353 886.623553c23.285269 14.564918 53.973589 7.501158 68.542595-15.776958 14.570028-23.278116 7.504224-53.956216-15.782068-68.522156-2.458826-1.538044-4.898236-3.106747-7.317206-4.705086-22.914299-15.141301-53.769198-8.846052-68.915609 14.062116-15.146411 22.907146-8.849118 53.752846 14.066204 68.894148C268.571082 882.63077 271.706443 884.64709 274.867353 886.623553zM256.101174 874.220072c22.524934 15.714619 53.529038 10.199122 69.248766-12.318659 15.719729-22.518802 10.202188-53.512687-12.322747-69.227305-2.380136-1.660679-4.740854-3.350994-7.07909-5.070946-22.126371-16.271585-53.25822-11.529709-69.533892 10.589509-16.275673 22.119218-11.533796 53.240846 10.592575 69.512431C250.011337 869.913549 253.042459 872.086228 256.101174 874.220072zM237.943058 860.861062c21.707369 16.825485 52.949589 12.872559 69.779162-8.828679 16.830595-21.701238 12.876647-52.933238-8.831745-69.757701-2.295313-1.779226-4.569166-3.587066-6.820535-5.423521-21.282236-17.359968-52.612343-14.186794-69.977421 7.089309s-14.190882 52.595992 7.091353 69.95596C232.073964 856.254084 234.994715 858.575968 237.943058 860.861062zM220.518707 846.643609c20.838707 17.889341 52.239329 15.504096 70.13378-5.328479 17.894451-20.832575 15.508184-52.222978-5.330523-70.112319-2.203337-1.891641-4.382148-3.809852-6.537453-5.754635-20.388024-18.401341-51.837701-16.79687-70.245174 3.585022s-16.80198 51.821349 3.586044 70.222691C214.891816 841.753549 217.689932 844.216463 220.518707 846.643609zM203.845493 831.59224c19.919968 18.90721 51.400303 18.090667 70.312623-1.82317 18.912319-19.913836 18.096798-51.383952-1.82317-70.291162-2.107273-1.999968-4.188998-4.025485-6.245174-6.077573-19.443737-19.395705-50.934291-19.36198-70.336128 0.075625-19.401836 19.437605-19.368112 50.918962 0.075625 70.314667C198.46796 826.424208 201.140375 829.025086 203.845493 831.59224zM187.94079 815.722283c18.951154 19.877046 50.432511 20.632271 70.315689 1.68725 19.883178-18.945022 20.639425-50.417182 1.688271-70.294228-2.004056-2.102164-3.981541-4.228854-5.933477-6.380072-18.451417-20.342036-49.90416-21.879058-70.252327-3.433772-20.348168 18.445285-21.886212 49.88883-3.434794 70.230866C182.828966 810.293653 185.367505 813.024319 187.94079 815.722283zM172.87307 799.108343c17.936351 20.796806 49.341062 23.119713 70.144 5.188471 20.802938-17.931242 23.126866-49.325733 5.190515-70.122539-1.897772-2.200271-3.767952-4.424048-5.610539-6.671329-17.41311-21.236248-48.750371-24.339928-69.993772-6.931928-21.243401 17.408-24.348104 48.735042-6.933972 69.972311C168.03513 793.428311 170.436727 796.283657 172.87307 799.108343zM158.623936 781.727936c16.874539 21.666491 48.123912 25.556056 69.797557 8.686627 21.673645-16.869429 25.564232-48.108583 8.689693-69.776096-1.782291-2.28816-3.535968-4.598802-5.260008-6.930906-16.329836-22.079361-47.472926-26.745613-69.559441-10.419864-22.086515 16.324727-26.753788 47.458619-10.423952 69.53798C154.082363 775.82103 156.334754 778.78879 158.623936 781.727936zM145.711521 764.294387c15.807617 22.456463 46.83216 27.850347 69.295776 12.04784 22.463617-15.802507 27.858523-46.817852 12.050906-69.274315-1.668854-2.370938-3.308072-4.762315-4.917653-7.174132-15.242475-22.843784-46.123944-29.008224-68.97386-13.769836-22.850938 15.238387-29.017421 46.109637-13.774946 68.952399C141.460184 758.174914 143.566435 761.247936 145.711521 764.294387zM133.171098 745.489373c14.65485 23.224974 45.368719 30.175297 68.600846 15.524535 23.232128-14.650762 30.184495-45.354411 15.529645-68.579385-1.549285-2.45576-3.068934-4.930938-4.55588-7.424511-14.069269-23.583681-44.599186-31.300471-68.19002-17.235289-23.590834 14.065182-31.310691 44.584878-17.241421 68.169581C129.225325 739.15018 131.178283 742.331529 133.171098 745.489373zM121.614818 726.11002c13.465293 23.934212 43.788774 32.423601 67.73014 18.962395 23.941365-13.461206 32.43382-43.775489 18.968527-67.709701-1.422563-2.529341-2.814467-5.076056-4.172647-7.640144-12.860295-24.263281-42.962012-33.510962-67.233469-20.654754s-33.521182 42.948727-20.660886 67.21303C117.99505 719.580743 119.784495 722.857134 121.614818 726.11002zM111.079473 706.227864c12.242012 24.582132 42.099481 34.588104 66.688766 22.35018 24.589285-12.237924 34.599345-42.086196 22.357333-66.667305-1.293796-2.597812-2.55489-5.211976-3.783281-7.842491-11.619641-24.881565-41.215489-35.635609-66.10523-24.019034s-35.64685 41.203226-24.02721 66.08479C107.790818 699.518723 109.414707 702.884024 111.079473 706.227864zM101.554842 685.824511c10.983984 25.168735 40.297772 36.67085 65.473661 25.689932s36.682092-40.284487 25.698108-65.453222c-1.15992-2.658108-2.286116-5.330523-3.379609-8.017246-10.346283-25.437509-39.361661-37.673389-64.806323-27.32915s-37.684631 39.349397-27.338347 64.785884C98.609565 678.960032 100.060743 682.40198 101.554842 685.824511zM93.078739 664.979673c9.696319 25.691976 38.390802 38.660599 64.090954 28.966323 25.69913-9.693253 38.67184-38.379561 28.975521-64.070515-1.022978-2.709206-2.01121-5.431697-2.965717-8.166451-9.046355-25.927026-37.405637-39.614084-63.340838-30.570794-25.935202 9.043289-39.626347 37.393373-30.579992 63.321421C90.48808 657.983361 91.761437 661.489693 93.078739 664.979673zM85.784016 644.092934c8.405589 26.142659 36.419449 40.522603 62.569261 32.119058 26.149812-8.403545 40.534866-36.408208 32.129277-62.549844-0.887058-2.758259-1.739369-5.529804-2.557956-8.311569-7.743361-26.346028-35.38523-41.427034-61.739433-33.685717-26.354204 7.741317-41.440319 35.37501-33.695936 61.720016C83.542866 636.968878 84.640447 640.538571 85.784016 644.092934zM79.420295 622.425421c7.066826 26.53509 34.313198 42.319202 60.856463 35.255441 26.543265-7.064782 42.332487-34.301956 35.265661-60.837046-0.745006-2.797094-1.455265-5.605429-2.129756-8.423984-6.396423-26.704735-33.236056-43.169469-59.948966-36.77509-26.71291 6.394379-43.182754 33.225836-36.786331 59.930571C77.545006 615.205301 78.460679 618.822004 79.420295 622.425421zM74.178683 600.531034c5.714778 26.85905 32.127234 44.001341 58.993437 38.288607s44.014627-32.117014 38.299848-58.975042c-0.601932-2.830818-1.169118-5.670834-1.700535-8.519026-5.038244-26.993948-31.011257-44.793357-58.013381-39.757158-27.002124 5.0362-44.807665 31.00206-39.769421 57.996008C72.673341 593.23018 73.40404 596.886739 74.178683 600.531034zM70.061222 578.457804c4.354555 27.112495 29.869733 45.56289 56.990403 41.209357s45.576176-29.860535 41.222643-56.97303c-0.458858-2.859433-0.88297-5.727042-1.271313-8.601804-3.673932-27.212647-28.720032-46.295633-55.940854-42.622723s-46.30994 28.710834-42.634986 55.923481C68.925828 571.091545 69.470531 574.779784 70.061222 578.457804zM67.064846 556.253764c2.991265 27.296447 27.550914 46.99976 54.855537 44.009517 27.304623-2.990244 47.01509-27.542739 44.023824-54.838164-0.315784-2.884982-0.596822-5.77814-0.84107-8.676407-2.309621-27.361852-26.370555-47.672208-53.741605-45.362587s-47.686515 26.362379-45.376894 53.724232C66.298379 548.832319 66.658108 552.54713 67.064846 556.253764zM65.182403 533.967968c1.631042 27.410906 25.179976 48.31093 52.60008 46.68091 27.419082-1.63002 48.325238-25.172822 46.695218-52.583729-0.172711-2.899289-0.309653-5.803689-0.409804-8.71422-0.952463-27.442587-23.978156-48.917972-51.42994-47.966531-27.451784 0.952463-48.933301 23.971002-47.980838 51.413589C64.785884 526.528128 64.960639 530.251114 65.182403 533.967968zM64.383234 506.989349c0 1.581988 0.008176 3.122076 0.023505 4.668295 0.278994 27.457916 22.770204 49.491289 50.237317 49.213317 27.466092-0.278994 49.506619-22.76305 49.228647-50.221988-0.012263-1.207952-0.018395-2.412838-0.018395-3.654515 0-1.706667 0.012263-3.416399 0.037812-5.124088 0.398563-27.456894-21.543856-50.037014-49.008926-50.435577-27.46507-0.398563-50.053365 21.536703-50.450906 48.993597C64.399585 502.612311 64.383234 504.800319 64.383234 506.989349zM64.737852 489.076503c-1.085317 27.438499 20.284806 50.560255 47.731481 51.645573 27.446675 1.085317 50.576607-20.278675 51.661924-47.716152 0.115481-2.906443 0.265709-5.807776 0.451705-8.702978 1.763896-27.402731-19.0278-51.046707-46.439729-52.809581-27.410906-1.762874-51.062036 19.022691-52.825932 46.425421C65.078164 481.631553 64.885014 485.350451 64.737852 489.076503zM66.18903 466.602667c-2.453717 27.349589 17.735026 51.509653 45.093812 53.962347 27.357764 2.452695 51.524982-17.729916 53.978699-45.079505 0.259577-2.893158 0.554922-5.780184 0.886036-8.660056 3.134339-27.280096-16.446339-51.935808-43.735633-55.068104s-51.951138 16.44123-55.085477 43.721325C66.901333 459.178156 66.522188 462.886834 66.18903 466.602667zM68.762315 444.23818c-3.82416 27.192208 15.126994 52.334371 42.327377 56.157509s52.350723-15.121884 56.174882-42.314092c0.403673-2.873741 0.844136-5.740327 1.319345-8.598739 4.50376-27.087968-13.810715-52.697166-40.906858-57.199904s-52.713517 13.806627-57.217277 40.894595C69.847633 436.854547 69.282491 440.541764 68.762315 444.23818zM72.459752 422.026986c-5.190515 26.964311 12.466842 53.030323 39.440351 58.219816 26.973509 5.189493 53.046675-12.463776 58.238212-39.428088 0.54879-2.848192 1.132327-5.688208 1.751633-8.518004 5.86705-26.825325-11.129102-53.327713-37.963625-59.192719s-53.344064 11.126036-59.211114 37.952383C73.917062 414.703649 73.164902 418.359186 72.459752 422.026986zM77.273166 400.034491c-6.547673 26.667944 9.768878 53.593421 36.444998 60.13905s53.609772-9.765812 60.157445-36.433756c0.691864-2.815489 1.417453-5.62178 2.17881-8.415808 7.218076-26.494212-8.415808-53.822339-34.918196-61.037349-26.502387-7.216032-53.838691 8.412743-61.056766 34.906954C79.099401 392.79291 78.163289 396.407569 77.273166 400.034491zM83.188248 378.33121c-7.889501 26.302084 7.044343 54.018555 33.354603 61.906012 26.310259 7.886435 54.034906-7.042299 61.924407-33.344383 0.832894-2.775633 1.699513-5.540024 2.600878-8.292152 8.549685-26.095649-5.680032-54.179002-31.783856-62.725621-26.103824-8.547641-54.195353 5.67901-62.745038 31.773637C85.378299 371.193868 84.260279 374.754363 83.188248 378.33121zM90.191713 356.962108c-9.209868 25.869796 4.301413 54.305725 30.179385 63.512527 25.877972 9.207824 54.322076-4.300391 63.532966-30.170188 0.97188-2.729645 1.977485-5.446004 3.016814-8.149078 9.85881-25.629637-2.931992-54.396679-28.569804-64.252423s-54.41303 2.93097-64.27184 28.561629C92.739449 349.946379 91.443609 353.445557 90.191713 356.962108zM98.258012 335.997701c-10.505709 25.372104 1.552351 54.453908 26.932631 64.955529 25.379257 10.502643 54.470259-1.552351 64.975968-26.924455 1.108822-2.677525 2.250347-5.340743 3.426619-7.988631 11.140343-25.100263-0.18293-54.475369-25.290347-65.612647-25.107417-11.136255-54.491721 0.18293-65.632064 25.282172C101.156279 329.119936 99.685685 332.549621 98.258012 335.997701zM107.047856 316.152335c-11.730012 24.830467-1.103713 54.464128 23.733908 66.190052 24.837621 11.725924 54.481501 1.102691 66.210491-23.726754 1.238611-2.621317 2.508902-5.226283 3.812918-7.814898 12.349317-24.527968 2.47109-54.419162-22.065054-66.765413-24.535122-12.34523-54.436535-2.470068-66.785852 22.0579C110.277238 309.424798 108.642108 312.778858 107.047856 316.152335zM117.221429 295.957461c-12.972711 24.204008-3.862994 54.338427 20.348168 67.308072 24.211162 12.969645 54.3558 3.861972 67.328511-20.342036 1.369421-2.555912 2.771545-5.093429 4.205349-7.614595 13.575665-23.871872 5.223218-54.22499-18.655808-67.796567-23.879026-13.571577-54.241341-5.221174-67.817006 18.649677C120.787034 289.404679 118.984303 292.669828 117.221429 295.957461zM128.38119 276.34408c-14.178619 23.518275-6.601836 54.074762 16.924615 68.248271 23.525429 14.174531 54.091114 6.599792 68.269733-16.919505 1.498188-2.485397 3.028056-4.952399 4.588583-7.399984 14.762156-23.156503 7.95184-53.892854-15.211816-68.6499-23.163657-14.758068-53.909206-7.949796-68.671361 15.207729C132.274842 269.977293 130.308599 273.148423 128.38119 276.34408zM140.492391 257.35307c-15.343649 22.776335-9.312064 53.674156 13.470403 69.012695 22.783489 15.338539 53.690507 9.31002 69.034156-13.466315 1.621844-2.406707 3.273325-4.793996 4.954443-7.159824 15.906747-22.385948 10.648782-53.424798-11.744319-69.327457-22.393102-15.901637-53.442172-10.645717-69.348918 11.741253C144.697741 251.193741 142.57616 254.260631 140.492391 257.35307zM153.534595 239.00487c-16.466778 21.978188-11.993677 53.139673 9.990643 69.601341 21.984319 16.461669 53.156024 11.989589 69.622802-9.987577 1.739369-2.321884 3.508375-4.622307 5.305996-6.901269 17.008415-21.56123 13.313022-52.82491-8.255361-69.828216-21.568383-17.003305-52.841261-13.308934-69.849677 8.252295C158.040399 233.067305 155.768591 236.02178 153.534595 239.00487zM167.433198 221.388391c-17.54392 21.128942-14.632367 52.475401 6.502707 70.01319s52.490731 14.628279 70.034651-6.500663c1.855872-2.235018 3.739337-4.446531 5.650395-6.635561 18.064096-20.686435 15.934339-52.094212-4.758228-70.153198-20.692567-18.058986-52.110563-15.92923-70.174659 4.757206C172.234347 215.678723 169.816399 218.518739 167.433198 221.388391zM181.94804 204.756056c-18.559745 20.242906-17.190323 51.693605 3.058715 70.24824 20.249038 18.553613 51.709956 17.185214 70.269701-3.057693 1.961134-2.138954 3.947816-4.253381 5.962092-6.342259 19.056415-19.775872 18.46879-51.251098-1.313214-70.302403s-51.267449-18.463681-70.323864 1.312192C187.016942 199.296766 184.465118 202.011082 181.94804 204.756056zM197.606451 188.514108c-19.551042 19.287377-19.760543 50.767713-0.467034 70.312623 19.293509 19.54491 50.783042 19.754411 70.335106 0.467034 2.067417-2.039824 4.160383-4.053078 6.277876-6.040782 20.024208-18.795816 21.016527-50.260822 2.214579-70.27992-18.801948-20.019098-50.276152-21.009373-70.301381-2.213557C202.947194 183.310307 200.260471 185.895856 197.606451 188.514108zM214.037461 173.096878c-20.492263 18.284838-22.277621 49.715098-3.986651 70.20123 18.29097 20.486132 49.730427 22.270467 70.222691 3.985629 2.164503-1.931497 4.353533-3.836423 6.566068-5.713756 20.940902-17.770794 23.506012-49.14689 5.730108-70.080639-17.775904-20.933749-49.16222-23.498858-70.1021-5.728064C219.627561 168.172072 216.817182 170.617613 214.037461 173.096878zM231.133764 158.591234c-21.378299 17.241421-24.728271 48.542914-7.481741 69.915082 17.246531 21.372168 48.558244 24.721118 69.937565 7.479697 2.259545-1.822148 4.541573-3.615681 6.845062-5.381621 21.801389-16.703872 25.92907-47.913389 9.220088-69.707625-16.708982-21.794236-47.927697-25.920894-69.729086-9.217022C236.966068 153.948487 234.035098 156.251976 231.133764 158.591234zM248.927042 144.960383c-22.212216 16.15406-27.119649 47.25014-10.961501 69.455202 16.158148 22.206084 47.264447 27.111473 69.476663 10.957413 2.349477-1.708711 4.720415-3.387784 7.111792-5.038244 22.608735-15.594028 28.29081-46.558275 12.691673-69.159856-15.599138-22.601581-46.572583-28.281613-69.181317-12.687585C254.992351 140.60685 251.9459 142.7642 248.927042 144.960383zM267.373349 132.238052c-22.991968 15.024798-29.446643 45.836774-14.417756 68.821589s45.851082 29.437445 68.84305 14.413669c2.427146-1.586076 4.873709-3.141493 7.338667-4.666251 23.359872-14.446371 30.582036-45.087681 16.131577-68.440399-14.450459-23.352719-45.101988-30.571816-68.46186-16.126467C273.636918 128.199281 270.492359 130.19925 267.373349 132.238052zM286.393996 120.474315c-23.713469 13.857725-31.700056 44.309972-17.837222 68.016287 13.861812 23.706315 44.323257 31.689836 68.036727 17.832112 2.503792-1.463441 5.02598-2.895202 7.564519-4.295281 24.052758-13.25988 32.799681-43.502627 19.534691-67.548232-13.263968-24.045605-43.515912-32.789461-67.568671-19.528559C292.857868 116.751329 289.61418 118.592894 286.393996 120.474315z" p-id="20436" fill="#2c2c2c"></path></svg>