<?xml version="1.0" standalone="no"?><!DOCTYPE svg PUBLIC "-//W3C//DTD SVG 1.1//EN" "http://www.w3.org/Graphics/SVG/1.1/DTD/svg11.dtd"><svg t="1674691923375" class="icon" viewBox="0 0 1024 1024" version="1.1" xmlns="http://www.w3.org/2000/svg" p-id="3672" xmlns:xlink="http://www.w3.org/1999/xlink" width="200" height="200"><path d="M979.52953384 636.2602336l-73.41605545-62.76490615a402.86174806 402.86174806 0 0 0 5.27122536-64.78041321c0-21.74102172-1.79549069-43.4899012-5.27122536-64.78434205l73.41605545-62.76359654c11.31774649-9.63619288 15.46531688-25.32676461 10.41934635-39.45233899l-1.0070987-2.91128796c-20.28603257-56.59659025-50.3208854-108.60295816-89.3227147-154.55625685l-2.01943593-2.3533893a36.0027967 36.0027967 0 0 0-39.34364041-10.64853006l-91.11689576 32.39217105c-33.6245246-27.57014574-71.1713647-49.31509633-111.73819131-64.55384874l-17.59999947-95.26708539c-2.68734273-14.68347303-14.23427293-26.11515656-28.91643635-28.80773777l-3.02784423-0.55789865c-58.39339055-10.53459303-119.80938685-10.53459303-178.20277744 0l-3.02522498 0.55789865c-14.68478263 2.69258121-26.22647437 14.12426477-28.91905557 28.80773777l-17.70607878 95.71497583c-40.23680208 15.24137165-77.56100659 36.8671467-110.96027633 64.3299035l-91.79004107-32.61611625c-14.01032771-4.93072386-29.70220907-0.78184385-39.33709233 10.64853006l-2.02074551 2.3533893c-39.00444854 46.06199724-69.04192062 98.06836515-89.32402433 154.55625685l-1.00971794 2.91128796c-5.04204166 14.00901808-0.89970978 29.70613794 10.42327521 39.45233899l74.3065979 63.43805146c-3.47442509 21.06918605-5.15728833 42.58626253-5.15728836 63.99464047 0 21.52100535 1.68286324 43.03808184 5.15728836 63.99725971l-74.3065979 63.43674185c-11.32298499 9.6388121-15.46531688 25.32807424-10.42327521 39.45102934l1.00971794 2.91521685c20.2821037 56.48789171 50.31957578 108.60295816 89.32402433 154.55625681l2.02074551 2.35338931a35.99755824 35.99755824 0 0 0 39.33709233 10.6498397l91.79004107-32.61742587c33.39796012 27.46144715 70.72216464 49.20377851 110.96027633 64.33645159l17.70607878 95.71497585c2.69258121 14.68347303 14.23427293 26.11384697 28.91905557 28.80118965l3.02522498 0.55920826a503.64102911 503.64102911 0 0 0 89.10269835 7.96249697c29.92615429 0 59.96362637-2.69389082 89.10007909-7.96249697l3.02784423-0.55920826c14.68216338-2.68734273 26.22909363-14.11771667 28.91643635-28.80118965l17.59999947-95.26577577c40.56813625-15.24922938 78.11366675-36.87369481 111.73819131-64.56039683l91.11689576 32.39217103c14.01032771 4.93072386 29.70613794 0.78184385 39.34364041-10.6498397l2.01943593-2.35338931c39.00182927-46.06330684 69.03668213-98.06836515 89.3227147-154.55625681l1.0070987-2.91521685c5.04597053-13.78114399 0.89840015-29.47171573-10.41934635-39.22446488zM826.54482245 457.16036566a317.23478443 317.23478443 0 0 1 4.25626895 51.66717602c0 17.37736386-1.45498917 34.74425073-4.25626895 51.66455675l-7.39935983 44.94619999 83.72015514 71.62056478c-12.66272751 29.25038974-28.68856225 56.82446435-47.74355085 82.48780158l-104.00487809-36.87369479-35.19476044 28.91774594c-26.78830188 21.96496695-56.60444798 39.22708414-88.87875309 51.33191299l-42.70281882 16.02321549-20.06208734 108.71820486c-31.49508051 3.58443326-63.6567582 3.58443326-95.268395 0l-20.05946809-108.94215007-42.36493656-16.24847036c-31.94297095-12.10613848-61.64125116-29.36563641-88.2056078-51.2219048l-35.18821234-29.02775415-104.6858811 37.20764823c-19.05105975-25.66595651-34.96950557-53.34611039-47.74224124-82.48518237l84.61593606-72.28847159-7.28280356-44.82964368c-2.69258121-16.70421855-4.14757038-33.96502609-4.14757037-50.99926918 0-17.14687051 1.34498098-34.29897953 4.14757037-50.99534035l7.28280356-44.82964367-84.61593606-72.29240047c12.6640371-29.25038974 28.6911815-56.8218451 47.74224124-82.4878016l104.6858811 37.20764821 35.18821234-29.02775413c26.56435663-21.85626838 56.26263684-39.11707594 88.2056078-51.2166663l42.48018322-16.03107325 20.05946812-108.94084045c31.49639013-3.58574288 63.65806782-3.58574288 95.26708534 0l20.06339698 108.71820485 42.70150918 16.02976361c32.16167768 12.09959037 62.09176084 29.36039792 88.87351461 51.32536488l35.19476042 28.91905557 104.00618773-36.87369481c19.05629825 25.66595651 34.97081521 53.35265851 47.74878935 82.49304007l-83.72670325 71.6140167 7.29066127 44.7196355z m0 0"  p-id="3673"></path><path d="M516.86917167 300.35941806c-108.9382212 0-197.25383718 88.32216409-197.25383718 197.25907567 0 108.94215005 88.31561599 197.25776602 197.25383718 197.25776604 108.94215005 0 197.25645642-88.31692561 197.25645642-197.25776604 0-108.93691157-88.31561599-197.25907566-197.25645642-197.25907567z m88.76481607 286.02389173c-23.75783837 23.65306869-55.25160926 36.76499625-88.76481607 36.76499626-33.50927793 0-65.00435842-13.11323718-88.76612568-36.76499626-23.64913982-23.75652877-36.75844814-55.25029966-36.75844815-88.76481606 0-33.50665868 13.10930834-65.00435842 36.75844815-88.76481606 23.76176725-23.76176725 55.25684776-36.75844814 88.76612568-36.75844816 33.51320678 0 65.00828729 12.99668091 88.76481607 36.75844816 23.65175908 23.76176725 36.76237701 55.25815737 36.76237701 88.76481606 0 33.51451641-13.11061794 65.00828729-36.76237701 88.76481606z m0 0"  p-id="3674"></path></svg>